<svg xmlns="http://www.w3.org/2000/svg" xmlns:xlink="http://www.w3.org/1999/xlink" width="178.108" height="56.408" xmlns:v="https://vecta.io/nano"><g fill="#32ad79"><path d="M116.685 41.577a9.51 9.51 0 0 1-6.4-2.808 9.04 9.04 0 0 1-2.633-6.352h5.775a3.58 3.58 0 0 0 3.259 3.507v5.653zm61.4-.008h-7.858l-7.345-7.868V22.477l7.345-7.87h7.884l-12.645 13.476 12.62 13.482zm-42.274-.04h-6.2l9.628-26.92h4.662l9.6 26.916h-6.2l-1.183-3.3h-8.3l2.085-5.8h4.146l-2.485-6.906-5.75 16.02zm26.667 0h-5.933V14.61h5.933v26.917zm-57.66 0h-5.935V14.61h5.934v26.917zm-16.8 0h-6.5v-5.8h6.178a2.54 2.54 0 0 0 2.351-1.529c.4-.934.178-2.02-.557-2.72a2.56 2.56 0 0 0-1.794-.72h-6.178v-5.382h4.76a2.5 2.5 0 0 0 2.288-3.435 2.54 2.54 0 0 0-2.329-1.533h-4.72v-5.8h4.82a8.18 8.18 0 0 1 5.78 2.394 7.82 7.82 0 0 1 2.45 5.757 7.8 7.8 0 0 1-1.4 4.5v.02a8.12 8.12 0 0 1-5.13 14.248zm-7.363 0h-5.93V14.61h5.933v26.917zm36.872-.108v-5.658c.914-.064 1.77-.47 2.4-1.134a3.29 3.29 0 0 0 .992-2.365V14.608h5.5V32.27a9.2 9.2 0 0 1-8.9 9.148zM12.27 15.884h2.213a.58.58 0 0 0 .412-.594c.012-.148-.03-.296-.12-.415a.48.48 0 0 0-.34-.185H12.27a.44.44 0 0 0-.343.18.62.62 0 0 0-.123.42c-.02.288.182.544.466.594z"/><use xlink:href="#B"/><use xlink:href="#B" y="5.867"/><path d="M12.27 33.425h2.213c.277-.06.47-.3.454-.594.018-.285-.175-.54-.454-.6H12.27a.44.44 0 0 0-.343.18.62.62 0 0 0-.123.42c-.023.3.178.55.464.6zm2.624 5.29a.62.62 0 0 0-.12-.417c-.08-.1-.205-.177-.34-.183H12.27a.57.57 0 0 0-.468.6.57.57 0 0 0 .468.6h2.213a.57.57 0 0 0 .412-.6zm-.77-25.584v.52h.3a1.55 1.55 0 0 1 1.494 1.56 1.54 1.54 0 0 1-.427 1.1 1.48 1.48 0 0 1-1.067.46h-.3v2.748h.3c.403.003.8.17 1.067.46a1.58 1.58 0 0 1-1.067 2.657h-.3v2.753h.3a1.56 1.56 0 0 1 0 3.119h-.3v2.753h.3a1.48 1.48 0 0 1 1.067.46c.42.447.543 1.098.314 1.667s-.768.954-1.38.986h-.3v2.753h.3c.837.032 1.498.722 1.494 1.56a1.54 1.54 0 0 1-.426 1.1c-.282.296-.664.458-1.068.46h-.3a.55.55 0 0 0 .517.506h2.726V12.617H14.64a.5.5 0 0 0-.363.147c-.097.097-.153.23-.154.366zm8.62 27.53h-4.33V12.617h15.495a.51.51 0 0 1 .36.15c.096.096.152.227.154.363v5.868H24.285a1.52 1.52 0 0 0-1.086.456 1.58 1.58 0 0 0-.457 1.1zm-1.564-25.4a.52.52 0 0 0-.513.52.56.56 0 0 0 .513.52h10.474c.277-.02.496-.243.513-.52a.53.53 0 0 0-.151-.369.5.5 0 0 0-.359-.151H21.178zM41.38 30.84h-2.94l1.442 3.016 1.498-3.016zm.304-17.2c0-.568-.46-1.03-1.027-1.033H39.1a1.01 1.01 0 0 0-.736.294c-.198.197-.3.464-.3.743v1.3h3.6zm-3.604 2.336h3.603v13.816H38.08zm2.52 27.06l3.04-3.013H40.6v3.013zm-1.026.712H24.268a.52.52 0 0 1-.513-.52v-22.68a.56.56 0 0 1 .517-.52H37.1v10.284c-.007.074.01.148.052.2l2.318 4.672c.086.178.267.3.465.3a.52.52 0 0 0 .465-.29l2.32-4.697c.053-.1.053-.1.046-2.77l-.01-7.7h1.082c.132.001.257.058.344.156s.132.23.12.364v18.406h-4.22a.56.56 0 0 0-.517.52v4.273zM26.76 38.682a.48.48 0 0 0-.342.144.5.5 0 0 0-.142.381c.001.138.056.27.153.37s.225.15.36.15h9.78a.52.52 0 0 0 0-1.04h-9.81zm0-3.632a.48.48 0 0 0-.341.143.5.5 0 0 0-.144.378c.001.138.056.27.153.37s.225.15.36.15h8.3c.277-.02.496-.243.513-.52a.53.53 0 0 0-.151-.369.5.5 0 0 0-.359-.151h-8.33zm.032-3.638a.52.52 0 0 0 0 1.04h7.786a.52.52 0 0 0 0-1.04zm0-3.636a.52.52 0 0 0 0 1.04h7.263a.52.52 0 0 0 0-1.04zm0-3.636a.52.52 0 0 0 0 1.04h7.263a.52.52 0 0 0 0-1.04zM34.93.414a15.8 15.8 0 0 1 2.153.841S31.324-.428 28.173.1c0 0 3.4.218 4.5 1.1 0 0-4.386-1.263-11.063.8 0 0 11.308-2.56 20.46 3.555s15.184 17.552 10.4 31.24S33.3 56.09 22.804 54.015 3.542 43.5 1.834 32.662s1.618-16.32 2.674-18.2 2.03-3.213 2.58-4.223a12.9 12.9 0 0 1 1.864-2.463c-.138.4.2.982 1.132 1a3.236 3.236 0 0 0 1.725-.468 3.256 3.256 0 0 0-1.51-1.06 1.212 1.212 0 0 0-1.008.187q.51-.527 1.116-1.045a1.724 1.724 0 0 0 1.422.936 3.479 3.479 0 0 0 1.725-.514 3.208 3.208 0 0 0-1.6-1.056 1.525 1.525 0 0 0-.994.218H11c.5-.377.932-.7 1.33-1.03a1.348 1.348 0 0 0 1.38 1.031 3.14 3.14 0 0 0 1.667-.5 2.78 2.78 0 0 0-1.636-1.056 1.873 1.873 0 0 0-.994.187c.428-.352.78-.6 1.035-.8a2.19 2.19 0 0 0 1.542-.4 3.065 3.065 0 0 0 .886-1.541 3.134 3.134 0 0 0-1.912.3 1.859 1.859 0 0 0-.642 1.432c-.152.1-.442.3-.825.563a1.406 1.406 0 0 0 .276-.968 3.587 3.587 0 0 0-.659-1.545 2.228 2.228 0 0 0-.883 1.76 1.528 1.528 0 0 0 .518 1.3l-.918.7a1.532 1.532 0 0 0 .169-.982 2.686 2.686 0 0 0-.69-1.359 2.631 2.631 0 0 0-.86 1.635 1.473 1.473 0 0 0 .49 1.436c-.3.25-.58.514-.887.8.03-.063.045-.127.076-.2a2.922 2.922 0 0 0-.58-2.291 2.307 2.307 0 0 0-.321 3.241H8.6a26.942 26.942 0 0 0-2.964 3.431C2.424 15.614-.3 22.266.026 28.657s2.76 18.562 16.4 25.14 29.417.2 36.705-13.26S54.92 5.37 34.93.414z"/></g><defs ><path id="B" d="M12.268 21.7h2.214c.276-.06.468-.312.453-.594.018-.285-.174-.54-.453-.6h-2.214c-.28.06-.47.315-.453.6-.018.285.174.54.453.6z"/></defs></svg>